<?xml version="1.0" encoding="utf-8"?>
<!-- Generator: Adobe Illustrator 19.0.0, SVG Export Plug-In . SVG Version: 6.00 Build 0)  -->
<svg version="1.1" id="Layer_1" xmlns="http://www.w3.org/2000/svg" xmlns:xlink="http://www.w3.org/1999/xlink" x="0px" y="0px"
	 viewBox="-85 339 89.8 89.8" style="enable-background:new -85 339 89.8 89.8;" xml:space="preserve">
<style type="text/css">
	.st0{fill:none;stroke:#000000;stroke-width:3;stroke-linecap:round;stroke-linejoin:round;stroke-miterlimit:10;}
	.st1{fill:none;stroke:#000000;stroke-width:2;stroke-miterlimit:10;}
</style>
<g>
	<polyline class="st0" points="1.1,378.3 1.1,425.1 -81.3,425.1 -81.3,378.3 	"/>
	<polyline class="st0" points="-68.6,386.9 -68.6,342.7 -11.6,342.7 -11.6,386.9 	"/>
	<polyline class="st0" points="-81.3,378.3 -40.1,405.9 1.1,378.3 	"/>
	<line class="st0" x1="-11.6" y1="368.5" x2="1.1" y2="378.3"/>
	<line class="st0" x1="-81.3" y1="378.3" x2="-68.6" y2="368.5"/>
</g>
<g>
	<path class="st1" d="M-32.1,381.9c-2.9,1.6-5.9,2.1-9.3,2.1c-8.6,0-15.9-6.3-15.9-16.5c0-10.9,7.5-20.2,19.2-20.2
		c9.1,0,15.2,6.4,15.2,15.2c0,7.9-4.5,12.5-9.3,12.5c-2.1,0-4.1-1.4-3.9-4.7h-0.2c-1.8,3-4.3,4.7-7.3,4.7c-3,0-5.7-2.5-5.7-6.6
		c0-6.4,5.2-12.5,12.5-12.5c2.3,0,4.3,0.5,5.6,1.1l-1.8,9.5c-0.7,3.9-0.2,5.9,1.6,5.9c2.7,0,5.7-3.6,5.7-9.7
		c0-7.5-4.7-12.9-12.7-12.9c-8.6,0-15.9,6.8-15.9,17.4c0,8.8,5.7,14.1,13.4,14.1c3,0,5.7-0.7,7.9-1.8L-32.1,381.9z M-34.9,359.2
		c-0.5-0.2-1.4-0.4-2.7-0.4c-4.7,0-8.4,4.3-8.4,9.5c0,2.3,1.1,3.9,3.4,3.9c3,0,5.9-3.9,6.4-7.2L-34.9,359.2z"/>
</g>
</svg>
