<?xml version="1.0" encoding="utf-8"?>
<!-- Generator: Adobe Illustrator 19.0.0, SVG Export Plug-In . SVG Version: 6.00 Build 0)  -->
<svg version="1.1" id="Layer_1" xmlns="http://www.w3.org/2000/svg" xmlns:xlink="http://www.w3.org/1999/xlink" x="0px" y="0px"
	 viewBox="67 339 89.8 89.8" style="enable-background:new 67 339 89.8 89.8;" xml:space="preserve">
<g>
	<path d="M93.4,428h36.9c4.4,0,8-3.6,8-8l0,0v-72.2c0-4.4-3.6-8-8-8H93.4c-4.4,0-8,3.6-8,8V420C85.4,424.4,89,428,93.4,428L93.4,428
		z M133.9,408.9H89.8v-53.3h44.1V408.9z M130.3,423.6H93.4c-2,0-3.6-1.6-3.6-3.6l0,0v-6.7h44.1v6.7
		C133.9,422,132.3,423.6,130.3,423.6L130.3,423.6z M93.4,344.2h36.9c2,0,3.6,1.6,3.6,3.6v3.4H89.8v-3.4
		C89.8,345.8,91.5,344.2,93.4,344.2z"/>
	<path d="M99.6,386.9c0.9,0.9,2.3,0.9,3.1,0l14.7-14.7c0.9-0.8,0.9-2.2,0.1-3.1s-2.2-0.9-3.1-0.1c0,0-0.1,0.1-0.1,0.1l-14.7,14.7
		C98.8,384.7,98.8,386.1,99.6,386.9z"/>
	<path d="M96.8,376.6c0.9,0.9,2.3,0.9,3.1,0l10.6-10.6c0.7-1,0.6-2.4-0.4-3.1c-0.8-0.6-1.9-0.6-2.6,0l-10.6,10.6
		C96,374.4,95.9,375.8,96.8,376.6z"/>
	<circle cx="111.9" cy="417.9" r="3.7"/>
</g>
</svg>
