<?xml version="1.0" encoding="utf-8"?>
<!-- Generator: Adobe Illustrator 19.0.0, SVG Export Plug-In . SVG Version: 6.00 Build 0)  -->
<svg version="1.1" id="Layer_1" xmlns="http://www.w3.org/2000/svg" xmlns:xlink="http://www.w3.org/1999/xlink" x="0px" y="0px"
	 viewBox="-417.5 339 89.8 89.8" style="enable-background:new -417.5 339 89.8 89.8;" xml:space="preserve">
<path d="M-347.4,395c3.1-5.5,4.9-11.8,4.9-18.5c0-20.7-16.8-37.5-37.5-37.5s-37.5,16.8-37.5,37.5S-400.7,414-380,414
	c6.7,0,13-1.8,18.5-4.9l16.7,16.7c1.9,1.9,4.4,2.9,7.1,2.9c2.7,0,5.2-1,7.1-2.9c1.9-1.9,2.9-4.4,2.9-7.1s-1-5.2-2.9-7.1L-347.4,395z
	 M-380,344c17.9,0,32.5,14.6,32.5,32.5c0,17.9-14.6,32.5-32.5,32.5c-17.9,0-32.5-14.6-32.5-32.5S-397.9,344-380,344z M-334.2,422.3
	c-0.9,0.9-2.2,1.5-3.5,1.5c-1.3,0-2.6-0.5-3.5-1.5l-16-16c2.7-2,5-4.4,7.1-7.1l16,16c0.9,0.9,1.5,2.2,1.5,3.5
	S-333.3,421.4-334.2,422.3z"/>
<path d="M-380,404c15.2,0,27.5-12.3,27.5-27.5S-364.9,349-380,349s-27.5,12.3-27.5,27.5S-395.2,404-380,404z M-380,354
	c12.4,0,22.5,10.1,22.5,22.5c0,12.4-10.1,22.5-22.5,22.5s-22.5-10.1-22.5-22.5S-392.4,354-380,354z"/>
<path d="M-395,379c1.4,0,2.5-1.1,2.5-2.5c0-6.9,5.6-12.5,12.5-12.5c1.4,0,2.5-1.1,2.5-2.5s-1.1-2.5-2.5-2.5
	c-9.6,0-17.5,7.9-17.5,17.5C-397.5,377.9-396.4,379-395,379z"/>
</svg>
