<?xml version="1.0" encoding="utf-8"?>
<!-- Generator: Adobe Illustrator 19.0.0, SVG Export Plug-In . SVG Version: 6.00 Build 0)  -->
<svg version="1.1" id="Layer_1" xmlns="http://www.w3.org/2000/svg" xmlns:xlink="http://www.w3.org/1999/xlink" x="0px" y="0px"
	 viewBox="-208 339 89.8 89.8" style="enable-background:new -208 339 89.8 89.8;" xml:space="preserve">
<path d="M-132.9,397l-18.7-5.4v-7.3v-0.2c2.1-2.9,3.7-6.6,4.3-10.6c0.6-0.4,1.2-1,1.4-1.5c1.5-3.1,2.5-6.8,2.5-10.4
	c0-11.6-8.7-20.9-20.1-20.9c-11.2,0-20.1,9.3-20.1,21.3c0,2.3,0.4,4.6,1,7l0,0c0,0.2,0.4,1,1.2,1.5c0.2,6.2,2.5,11.6,6,15.5v6
	l-18.5,5.4c-3.9,0.8-11.4,4.8-11.2,14.9v1c0,6.2,3.9,10.4,11,11.8c5.8,1.2,13.7,2.3,30.7,2.3c16.2,0,24.1-1.4,30.1-2.3h0.4
	c6.8-1.2,11.2-6.4,11-10.4v-2.1C-121.9,401.9-129.2,397.8-132.9,397z M-177.5,370.2c1.9-0.6,5.8-2.1,9.1-4.1c0,0.2,0.2,0.2,0.2,0.4
	c0.6,0.6,1.4,0.8,2.1,0.6c0.6-0.2,4.3-1.5,7-4.3c1.4,3.1,4.1,7.5,8.1,10.2c-1.2,8.3-6.8,14.5-13.1,14.5
	C-171.3,387.2-177.1,379.6-177.5,370.2z M-163.6,344.5c9.3,0,16.2,7.3,16.2,17.2c0,2.7-0.6,5.4-1.7,7.9c-5.2-3.7-7.7-11.4-7.7-11.6
	c-0.2-0.8-1-1.4-1.7-1.4c-0.8,0-1.5,0.4-1.9,1.2c-0.8,1.7-2.5,3.1-4.3,4.1c0-0.2,0-0.4-0.2-0.4c-0.2-0.6-0.8-1.2-1.4-1.2
	c-0.6-0.2-1.4,0-1.7,0.6c-3.1,3.1-9.1,5.2-11.2,5.8c-0.4-1.5-0.6-3.1-0.6-4.8C-179.8,352.2-172.7,344.5-163.6,344.5z M-173.1,395.1
	c0.8-0.2,1.4-1,1.4-1.9v-4.3c2.3,1.4,4.6,2.1,7.3,2.1c3.1,0,6.2-1.2,8.7-3.1v5.2c0,0.8,0.6,1.5,1.4,1.9l2.3,0.6
	c-4.3,2.1-11,5-12.4,5c-1.2,0-6.6-2.3-12-4.6L-173.1,395.1z M-125.7,414c0,2.1-3.1,5.8-7.9,6.6h-0.4c-5.8,1-13.7,2.3-29.4,2.3
	c-16.8,0-24.3-1-29.9-2.1c-5.4-1.2-7.9-3.7-7.9-8.1v-1c-0.2-9.3,7.7-10.8,8.3-11l11.2-3.3c4.6,2.1,14.9,7,17.6,7
	c3.1,0,15.3-5.8,17.8-7.3l12.6,3.7c0.4,0,8.1,1.7,8.1,11L-125.7,414z"/>
</svg>
